<mxfile host="app.diagrams.net" modified="2023-11-21T17:13:42.928Z" agent="Mozilla/5.0 (Windows NT 10.0; Win64; x64) AppleWebKit/537.36 (KHTML, like Gecko) Chrome/119.0.0.0 Safari/537.36" etag="ZooH7i0_QWGkIv68f5E8" version="22.1.3" type="device">
  <diagram name="Page-1" id="nBPwqLHWkmxJUTbzMWt1">
    <mxGraphModel dx="1877" dy="534" grid="1" gridSize="10" guides="1" tooltips="1" connect="1" arrows="1" fold="1" page="1" pageScale="1" pageWidth="827" pageHeight="1169" math="0" shadow="0">
      <root>
        <mxCell id="0" />
        <mxCell id="1" parent="0" />
        <mxCell id="4QZDgnfPPG9GG_UpieSP-40" style="edgeStyle=orthogonalEdgeStyle;rounded=0;orthogonalLoop=1;jettySize=auto;html=1;exitX=0.5;exitY=1;exitDx=0;exitDy=0;" parent="1" source="4QZDgnfPPG9GG_UpieSP-1" target="4QZDgnfPPG9GG_UpieSP-5" edge="1">
          <mxGeometry relative="1" as="geometry" />
        </mxCell>
        <mxCell id="4QZDgnfPPG9GG_UpieSP-1" value="Blood Bank Management System" style="ellipse;whiteSpace=wrap;html=1;aspect=fixed;" parent="1" vertex="1">
          <mxGeometry x="-507" y="390" width="160" height="160" as="geometry" />
        </mxCell>
        <mxCell id="4QZDgnfPPG9GG_UpieSP-2" value="Donor" style="rounded=0;whiteSpace=wrap;html=1;" parent="1" vertex="1">
          <mxGeometry x="-740" y="420" width="135.5" height="70" as="geometry" />
        </mxCell>
        <mxCell id="4QZDgnfPPG9GG_UpieSP-3" value="Hospital&amp;nbsp;" style="rounded=0;whiteSpace=wrap;html=1;" parent="1" vertex="1">
          <mxGeometry x="-239" y="420" width="120" height="90" as="geometry" />
        </mxCell>
        <mxCell id="4QZDgnfPPG9GG_UpieSP-4" value="Recipient" style="rounded=0;whiteSpace=wrap;html=1;" parent="1" vertex="1">
          <mxGeometry x="-489" y="240" width="120" height="60" as="geometry" />
        </mxCell>
        <mxCell id="4QZDgnfPPG9GG_UpieSP-5" value="Blood Bank" style="rounded=0;whiteSpace=wrap;html=1;" parent="1" vertex="1">
          <mxGeometry x="-497" y="670" width="120" height="60" as="geometry" />
        </mxCell>
        <mxCell id="4QZDgnfPPG9GG_UpieSP-6" value="" style="endArrow=classic;html=1;rounded=0;" parent="1" edge="1">
          <mxGeometry width="50" height="50" relative="1" as="geometry">
            <mxPoint x="-589" y="430" as="sourcePoint" />
            <mxPoint x="-519" y="430" as="targetPoint" />
          </mxGeometry>
        </mxCell>
        <mxCell id="4QZDgnfPPG9GG_UpieSP-7" value="" style="endArrow=classic;html=1;rounded=0;" parent="1" edge="1">
          <mxGeometry width="50" height="50" relative="1" as="geometry">
            <mxPoint x="-589" y="450" as="sourcePoint" />
            <mxPoint x="-519" y="450" as="targetPoint" />
          </mxGeometry>
        </mxCell>
        <mxCell id="4QZDgnfPPG9GG_UpieSP-8" value="" style="endArrow=classic;html=1;rounded=0;" parent="1" edge="1">
          <mxGeometry width="50" height="50" relative="1" as="geometry">
            <mxPoint x="-521" y="469.5" as="sourcePoint" />
            <mxPoint x="-591" y="469.5" as="targetPoint" />
          </mxGeometry>
        </mxCell>
        <mxCell id="4QZDgnfPPG9GG_UpieSP-9" value="" style="endArrow=classic;html=1;rounded=0;" parent="1" edge="1">
          <mxGeometry width="50" height="50" relative="1" as="geometry">
            <mxPoint x="-519" y="490" as="sourcePoint" />
            <mxPoint x="-589" y="490" as="targetPoint" />
          </mxGeometry>
        </mxCell>
        <mxCell id="4QZDgnfPPG9GG_UpieSP-10" value="Donor&#39;s Information" style="text;html=1;strokeColor=none;fillColor=none;align=center;verticalAlign=middle;whiteSpace=wrap;rounded=0;fontSize=8;" parent="1" vertex="1">
          <mxGeometry x="-609" y="410" width="110" height="20" as="geometry" />
        </mxCell>
        <mxCell id="4QZDgnfPPG9GG_UpieSP-11" value="Blood Donation Request" style="text;html=1;strokeColor=none;fillColor=none;align=center;verticalAlign=middle;whiteSpace=wrap;rounded=0;fontSize=8;" parent="1" vertex="1">
          <mxGeometry x="-596" y="426" width="90" height="30" as="geometry" />
        </mxCell>
        <mxCell id="4QZDgnfPPG9GG_UpieSP-12" value="Donation Schedule" style="text;html=1;strokeColor=none;fillColor=none;align=center;verticalAlign=middle;whiteSpace=wrap;rounded=0;fontSize=8;" parent="1" vertex="1">
          <mxGeometry x="-614" y="445" width="117" height="30" as="geometry" />
        </mxCell>
        <mxCell id="4QZDgnfPPG9GG_UpieSP-13" value="Eligibility feedback" style="text;html=1;strokeColor=none;fillColor=none;align=center;verticalAlign=middle;whiteSpace=wrap;rounded=0;fontSize=8;" parent="1" vertex="1">
          <mxGeometry x="-604.5" y="466" width="90" height="30" as="geometry" />
        </mxCell>
        <mxCell id="4QZDgnfPPG9GG_UpieSP-14" value="" style="endArrow=classic;html=1;rounded=0;fontSize=8;" parent="1" edge="1">
          <mxGeometry width="50" height="50" relative="1" as="geometry">
            <mxPoint x="-479" y="320" as="sourcePoint" />
            <mxPoint x="-479" y="390" as="targetPoint" />
          </mxGeometry>
        </mxCell>
        <mxCell id="4QZDgnfPPG9GG_UpieSP-15" value="" style="endArrow=classic;html=1;rounded=0;fontSize=8;" parent="1" edge="1">
          <mxGeometry width="50" height="50" relative="1" as="geometry">
            <mxPoint x="-454" y="320" as="sourcePoint" />
            <mxPoint x="-454" y="390" as="targetPoint" />
          </mxGeometry>
        </mxCell>
        <mxCell id="4QZDgnfPPG9GG_UpieSP-16" value="" style="endArrow=classic;html=1;rounded=0;fontSize=8;" parent="1" edge="1">
          <mxGeometry width="50" height="50" relative="1" as="geometry">
            <mxPoint x="-429.34" y="388" as="sourcePoint" />
            <mxPoint x="-429.34" y="318" as="targetPoint" />
          </mxGeometry>
        </mxCell>
        <mxCell id="4QZDgnfPPG9GG_UpieSP-17" value="" style="endArrow=classic;html=1;rounded=0;fontSize=8;" parent="1" edge="1">
          <mxGeometry width="50" height="50" relative="1" as="geometry">
            <mxPoint x="-404" y="388" as="sourcePoint" />
            <mxPoint x="-404" y="318" as="targetPoint" />
          </mxGeometry>
        </mxCell>
        <mxCell id="4QZDgnfPPG9GG_UpieSP-19" value="Recipient &#39;s Detail" style="text;html=1;strokeColor=none;fillColor=none;align=center;verticalAlign=middle;whiteSpace=wrap;rounded=0;fontSize=8;direction=west;rotation=-90;" parent="1" vertex="1">
          <mxGeometry x="-534" y="342" width="85.5" height="30" as="geometry" />
        </mxCell>
        <mxCell id="4QZDgnfPPG9GG_UpieSP-20" value="Blood Request" style="text;html=1;strokeColor=none;fillColor=none;align=center;verticalAlign=middle;whiteSpace=wrap;rounded=0;fontSize=8;rotation=-90;" parent="1" vertex="1">
          <mxGeometry x="-499.5" y="348.5" width="67" height="30" as="geometry" />
        </mxCell>
        <mxCell id="4QZDgnfPPG9GG_UpieSP-21" value="Blood Availability" style="text;html=1;strokeColor=none;fillColor=none;align=center;verticalAlign=middle;whiteSpace=wrap;rounded=0;fontSize=8;rotation=-90;" parent="1" vertex="1">
          <mxGeometry x="-483" y="344" width="85" height="30" as="geometry" />
        </mxCell>
        <mxCell id="4QZDgnfPPG9GG_UpieSP-22" value="Blood&amp;nbsp; Dispatch Detail" style="text;html=1;strokeColor=none;fillColor=none;align=center;verticalAlign=middle;whiteSpace=wrap;rounded=0;fontSize=8;rotation=270;" parent="1" vertex="1">
          <mxGeometry x="-459" y="334" width="90" height="30" as="geometry" />
        </mxCell>
        <mxCell id="4QZDgnfPPG9GG_UpieSP-24" value="" style="endArrow=classic;html=1;rounded=0;fontSize=8;" parent="1" edge="1">
          <mxGeometry width="50" height="50" relative="1" as="geometry">
            <mxPoint x="-342" y="480.65999999999997" as="sourcePoint" />
            <mxPoint x="-249" y="481" as="targetPoint" />
          </mxGeometry>
        </mxCell>
        <mxCell id="4QZDgnfPPG9GG_UpieSP-25" value="" style="endArrow=classic;html=1;rounded=0;fontSize=8;" parent="1" edge="1">
          <mxGeometry width="50" height="50" relative="1" as="geometry">
            <mxPoint x="-479" y="659" as="sourcePoint" />
            <mxPoint x="-479" y="599" as="targetPoint" />
          </mxGeometry>
        </mxCell>
        <mxCell id="4QZDgnfPPG9GG_UpieSP-27" value="" style="endArrow=classic;html=1;rounded=0;fontSize=8;" parent="1" edge="1">
          <mxGeometry width="50" height="50" relative="1" as="geometry">
            <mxPoint x="-419" y="663" as="sourcePoint" />
            <mxPoint x="-419" y="600" as="targetPoint" />
          </mxGeometry>
        </mxCell>
        <mxCell id="4QZDgnfPPG9GG_UpieSP-29" value="" style="endArrow=classic;html=1;rounded=0;fontSize=8;" parent="1" edge="1">
          <mxGeometry width="50" height="50" relative="1" as="geometry">
            <mxPoint x="-397" y="599" as="sourcePoint" />
            <mxPoint x="-397" y="659" as="targetPoint" />
          </mxGeometry>
        </mxCell>
        <mxCell id="4QZDgnfPPG9GG_UpieSP-30" value="Inventory Updates" style="text;html=1;strokeColor=none;fillColor=none;align=center;verticalAlign=middle;whiteSpace=wrap;rounded=0;fontSize=8;rotation=270;" parent="1" vertex="1">
          <mxGeometry x="-526" y="611" width="70" height="30" as="geometry" />
        </mxCell>
        <mxCell id="4QZDgnfPPG9GG_UpieSP-32" value="search Donor" style="text;html=1;strokeColor=none;fillColor=none;align=center;verticalAlign=middle;whiteSpace=wrap;rounded=0;fontSize=8;rotation=270;" parent="1" vertex="1">
          <mxGeometry x="-469" y="620" width="80" height="30" as="geometry" />
        </mxCell>
        <mxCell id="4QZDgnfPPG9GG_UpieSP-33" value="Inventory Report" style="text;html=1;strokeColor=none;fillColor=none;align=center;verticalAlign=middle;whiteSpace=wrap;rounded=0;fontSize=8;rotation=270;" parent="1" vertex="1">
          <mxGeometry x="-441" y="620" width="75" height="30" as="geometry" />
        </mxCell>
        <mxCell id="4QZDgnfPPG9GG_UpieSP-35" value="Request slot" style="text;html=1;align=center;verticalAlign=middle;resizable=0;points=[];autosize=1;strokeColor=none;fillColor=none;" parent="1" vertex="1">
          <mxGeometry x="-347" y="460" width="90" height="30" as="geometry" />
        </mxCell>
        <mxCell id="4QZDgnfPPG9GG_UpieSP-36" value="" style="endArrow=classic;html=1;rounded=0;" parent="1" edge="1">
          <mxGeometry width="50" height="50" relative="1" as="geometry">
            <mxPoint x="-254" y="440.62" as="sourcePoint" />
            <mxPoint x="-339" y="440.62" as="targetPoint" />
          </mxGeometry>
        </mxCell>
        <mxCell id="4QZDgnfPPG9GG_UpieSP-37" value="Confirm Slot" style="text;html=1;align=center;verticalAlign=middle;resizable=0;points=[];autosize=1;strokeColor=none;fillColor=none;" parent="1" vertex="1">
          <mxGeometry x="-339" y="415" width="90" height="30" as="geometry" />
        </mxCell>
        <mxCell id="4QZDgnfPPG9GG_UpieSP-38" value="" style="endArrow=classic;html=1;rounded=0;" parent="1" edge="1">
          <mxGeometry width="50" height="50" relative="1" as="geometry">
            <mxPoint x="-456" y="600" as="sourcePoint" />
            <mxPoint x="-456" y="661" as="targetPoint" />
          </mxGeometry>
        </mxCell>
        <mxCell id="4QZDgnfPPG9GG_UpieSP-39" value="&lt;font style=&quot;font-size: 8px;&quot;&gt;Blood procurement report&lt;/font&gt;" style="text;html=1;align=center;verticalAlign=middle;resizable=0;points=[];autosize=1;strokeColor=none;fillColor=none;rotation=-90;" parent="1" vertex="1">
          <mxGeometry x="-523" y="611" width="110" height="30" as="geometry" />
        </mxCell>
        <mxCell id="4QZDgnfPPG9GG_UpieSP-41" value="&lt;font style=&quot;font-size: 7px;&quot;&gt;Blood procurement&lt;/font&gt;" style="text;html=1;align=center;verticalAlign=middle;resizable=0;points=[];autosize=1;strokeColor=none;fillColor=none;rotation=90;" parent="1" vertex="1">
          <mxGeometry x="-477" y="569.5" width="80" height="30" as="geometry" />
        </mxCell>
      </root>
    </mxGraphModel>
  </diagram>
</mxfile>
